<?xml version="1.0" standalone="no"?>
<!DOCTYPE svg PUBLIC "-//W3C//DTD SVG 20010904//EN"
 "http://www.w3.org/TR/2001/REC-SVG-20010904/DTD/svg10.dtd">
<svg version="1.0" xmlns="http://www.w3.org/2000/svg"
 width="449.000000pt" height="449.000000pt" viewBox="0 0 449.000000 449.000000"
 preserveAspectRatio="xMidYMid meet">
<metadata>
Created by potrace 1.14, written by Peter Selinger 2001-2017
</metadata>
<g transform="translate(0.000000,449.000000) scale(0.100000,-0.100000)"
fill="#000000" stroke="none">
<path d="M2005 4174 c-121 -23 -202 -43 -256 -65 -61 -24 -182 -80 -189 -88
-3 -4 -18 -13 -35 -21 -32 -16 -34 -17 -80 -53 -16 -12 -42 -30 -56 -39 -74
-46 -319 -306 -319 -338 0 -5 -6 -15 -14 -22 -19 -20 -101 -176 -116 -223 -7
-22 -16 -44 -20 -50 -7 -9 -32 -93 -60 -205 -29 -115 -30 -380 -1 -497 19 -76
53 -188 60 -198 4 -5 13 -30 20 -55 12 -44 19 -59 75 -182 14 -31 26 -62 26
-67 0 -6 5 -11 10 -11 6 0 10 -5 10 -10 0 -15 73 -164 82 -168 4 -2 8 -8 8
-14 0 -9 26 -58 106 -197 42 -72 78 -136 88 -156 12 -22 27 -46 91 -145 23
-36 59 -92 80 -125 21 -33 68 -104 104 -158 36 -54 71 -106 76 -116 15 -26 69
-105 76 -111 5 -4 59 -80 109 -153 8 -12 43 -59 77 -104 35 -46 63 -87 63 -92
0 -6 6 -14 13 -18 7 -4 29 -33 50 -63 20 -30 53 -72 72 -92 30 -34 39 -38 84
-38 44 0 53 4 84 38 36 37 107 129 107 136 0 4 119 166 145 198 7 9 22 29 32
45 10 15 21 33 26 38 4 6 21 27 37 49 17 21 30 42 30 47 0 4 6 14 14 22 8 8
40 52 70 98 30 46 59 89 64 95 6 6 18 26 27 45 10 19 21 36 25 39 7 5 78 115
158 244 21 32 48 75 61 95 13 20 39 65 58 101 19 36 43 79 53 95 41 65 100
175 100 184 0 5 6 16 13 23 7 7 30 51 52 98 21 47 42 87 47 88 4 2 8 8 8 14 0
6 13 38 29 72 15 34 32 72 36 86 4 14 11 30 15 35 4 6 13 32 19 60 7 27 16 54
21 60 17 21 61 215 70 308 17 170 -11 379 -72 552 -24 69 -64 163 -78 185 -5
8 -25 42 -45 75 -58 97 -147 209 -210 266 -16 15 -52 48 -80 73 -27 25 -53 46
-56 46 -3 0 -24 13 -45 30 -22 16 -43 33 -49 37 -5 5 -23 15 -40 23 -16 8 -32
17 -35 20 -6 7 -98 51 -165 80 -59 25 -180 57 -290 75 -102 18 -377 17 -470
-1z m434 -298 c131 -23 300 -90 405 -159 89 -59 265 -224 315 -296 25 -35 117
-213 138 -266 7 -16 19 -61 28 -100 9 -38 20 -86 26 -106 12 -46 12 -320 0
-351 -5 -13 -14 -51 -20 -86 -43 -231 -236 -511 -454 -660 -43 -28 -84 -52
-91 -52 -7 0 -18 10 -24 23 -12 25 -26 556 -14 572 4 6 32 27 62 47 92 62 165
175 195 301 27 115 16 337 -20 407 -7 14 -23 45 -35 70 -79 162 -232 241 -385
199 -61 -17 -147 -90 -182 -154 -9 -16 -19 -32 -23 -35 -18 -14 -62 -155 -72
-234 -12 -91 1 -265 21 -290 5 -6 14 -28 21 -50 23 -72 98 -175 151 -207 90
-54 83 -10 69 -394 -7 -207 -15 -344 -22 -352 -23 -28 -94 -38 -283 -38 -173
0 -197 2 -265 24 -41 13 -79 27 -84 32 -11 10 -38 762 -30 792 3 9 27 28 53
42 57 28 124 104 141 160 9 28 14 139 17 360 4 307 4 322 -15 345 -19 23 -20
23 -46 7 -16 -11 -26 -27 -26 -41 0 -58 -31 -554 -36 -579 -7 -36 -48 -57 -69
-36 -19 19 -33 163 -41 418 -7 212 -7 215 -32 238 -28 25 -49 29 -73 10 -30
-23 -36 -52 -43 -197 -9 -183 -30 -458 -36 -463 -15 -13 -48 -15 -64 -4 -16
12 -19 46 -30 326 -12 299 -14 313 -35 334 -17 17 -25 19 -39 11 -16 -10 -17
-39 -17 -355 l0 -344 25 -49 c26 -52 99 -123 140 -137 42 -15 46 -34 39 -184
-4 -77 -7 -201 -8 -275 -1 -164 -10 -240 -27 -247 -17 -6 -95 51 -173 128
-113 111 -160 176 -228 319 -25 52 -50 104 -55 114 -18 34 -50 198 -58 291
-17 221 39 455 155 644 6 9 21 34 34 56 13 22 34 50 45 61 12 12 37 41 56 65
35 42 223 199 240 199 5 0 15 6 22 14 14 14 132 68 178 81 14 4 30 11 35 15 6
5 48 16 95 25 47 9 101 21 120 25 48 12 228 5 329 -14z"/>
</g>
</svg>
